# This file uses centimeters as units for non-parametric coordinates.

mtllib SpaceStation2.mtl
g default
v 14.376899 4.810620 -2.963094
v 13.528058 4.794575 -5.711473
v 12.159336 4.779787 -8.241447
v 10.323333 4.766826 -10.455786
v 8.090603 4.756189 -12.269397
v 5.546950 4.748285 -13.612585
v 2.790126 4.743418 -14.433728
v -0.073928 4.741774 -14.701273
v -2.935145 4.743418 -14.404938
v -5.683573 4.748285 -13.556111
v -8.213589 4.756189 -12.187411
v -10.427968 4.766826 -10.351437
v -12.241611 4.779787 -8.118744
v -13.584821 4.794575 -5.575134
v -14.405980 4.810620 -2.818355
v -14.673530 4.827307 0.045651
v -14.377191 4.843993 2.906821
v -13.528350 4.860039 5.655202
v -12.159626 4.874826 8.185176
v -10.323620 4.887787 10.399517
v -8.090887 4.898424 12.213130
v -5.547233 4.906329 13.556317
v -2.790406 4.911196 14.377461
v 0.073649 4.912839 14.645006
v 2.934869 4.911196 14.348670
v 5.683297 4.906329 13.499841
v 8.213315 4.898424 12.131140
v 10.427694 4.887787 10.295164
v 12.241338 4.874826 8.062469
v 13.584549 4.860039 5.518856
v 14.405708 4.843993 2.762075
v 14.673257 4.827307 -0.101932
v 15.085851 2.373276 -3.093603
v 14.195157 2.356439 -5.977496
v 12.758948 2.340923 -8.632212
v 10.832417 2.327322 -10.955734
v 8.489599 2.316161 -12.858768
v 5.820529 2.307867 -14.268182
v 2.927775 2.302760 -15.129813
v -0.077494 2.301035 -15.410550
v -3.079788 2.302760 -15.099603
v -5.963731 2.307867 -14.208925
v -8.618494 2.316161 -12.772740
v -10.942056 2.327322 -10.846240
v -12.845123 2.340923 -8.503461
v -14.254562 2.356439 -5.834434
v -15.116209 2.373276 -2.941728
v -15.396951 2.390785 0.063491
v -15.086001 2.408294 3.065736
v -14.195306 2.425131 5.949630
v -12.759095 2.440647 8.604348
v -10.832563 2.454248 10.927869
v -8.489742 2.465409 12.830906
v -5.820668 2.473703 14.240320
v -2.927913 2.478811 15.101953
v 0.077359 2.480535 15.382690
v 3.079655 2.478811 15.071743
v 5.963599 2.473703 14.181060
v 8.618363 2.465409 12.744873
v 10.941926 2.454248 10.818373
v 12.844994 2.440648 8.475590
v 14.254434 2.425131 5.806561
v 15.116079 2.408294 2.913853
v 15.396821 2.390785 -0.091369
v 15.085992 -2.408295 -3.065731
v 14.195297 -2.425131 -5.949624
v 12.759088 -2.440648 -8.604340
v 10.832557 -2.454248 -10.927862
v 8.489740 -2.465410 -12.830896
v 5.820669 -2.473703 -14.240310
v 2.927915 -2.478811 -15.101941
v -0.077354 -2.480535 -15.382678
v -3.079648 -2.478811 -15.071732
v -5.963591 -2.473703 -14.181053
v -8.618354 -2.465410 -12.744868
v -10.941915 -2.454248 -10.818368
v -12.844983 -2.440648 -8.475589
v -14.254422 -2.425131 -5.806562
v -15.116068 -2.408295 -2.913856
v -15.396811 -2.390785 0.091363
v -15.085861 -2.373276 3.093608
v -14.195165 -2.356440 5.977502
v -12.758955 -2.340923 8.632221
v -10.832423 -2.327323 10.955741
v -8.489602 -2.316161 12.858778
v -5.820528 -2.307867 14.268192
v -2.927773 -2.302760 15.129825
v 0.077499 -2.301035 15.410561
v 3.079795 -2.302760 15.099615
v 5.963739 -2.307867 14.208932
v 8.618503 -2.316161 12.772745
v 10.942065 -2.327323 10.846245
v 12.845134 -2.340923 8.503462
v 14.254574 -2.356440 5.834433
v 15.116220 -2.373276 2.941725
v 15.396962 -2.390785 -0.063497
v 14.377181 -4.843992 -2.906816
v 13.528340 -4.860037 -5.655196
v 12.159618 -4.874825 -8.185168
v 10.323615 -4.887786 -10.399509
v 8.090886 -4.898423 -12.213119
v 5.547233 -4.906327 -13.556307
v 2.790408 -4.911195 -14.377450
v -0.073645 -4.912838 -14.644995
v -2.934862 -4.911195 -14.348660
v -5.683289 -4.906327 -13.499833
v -8.213306 -4.898423 -12.131133
v -10.427684 -4.887786 -10.295160
v -12.241328 -4.874825 -8.062467
v -13.584537 -4.860038 -5.518856
v -14.405696 -4.843992 -2.762077
v -14.673246 -4.827306 0.101928
v -14.376907 -4.810619 2.963098
v -13.528066 -4.794574 5.711479
v -12.159342 -4.779786 8.241452
v -10.323336 -4.766825 10.455793
v -8.090604 -4.756188 12.269406
v -5.546949 -4.748284 13.612593
v -2.790123 -4.743416 14.433737
v 0.073932 -4.741773 14.701282
v 2.935151 -4.743416 14.404947
v 5.683580 -4.748284 13.556118
v 8.213597 -4.756188 12.187416
v 10.427977 -4.766825 10.351440
v 12.241621 -4.779786 8.118746
v 13.584831 -4.794574 5.575132
v 14.405990 -4.810619 2.818352
v 14.673539 -4.827306 -0.045655
vt 0.000000 1.000000
vt 0.031250 1.000000
vt 0.062500 1.000000
vt 0.093750 1.000000
vt 0.125000 1.000000
vt 0.156250 1.000000
vt 0.187500 1.000000
vt 0.218750 1.000000
vt 0.250000 1.000000
vt 0.281250 1.000000
vt 0.312500 1.000000
vt 0.343750 1.000000
vt 0.375000 1.000000
vt 0.406250 1.000000
vt 0.437500 1.000000
vt 0.468750 1.000000
vt 0.500000 1.000000
vt 0.531250 1.000000
vt 0.562500 1.000000
vt 0.593750 1.000000
vt 0.625000 1.000000
vt 0.656250 1.000000
vt 0.687500 1.000000
vt 0.718750 1.000000
vt 0.750000 1.000000
vt 0.781250 1.000000
vt 0.812500 1.000000
vt 0.843750 1.000000
vt 0.875000 1.000000
vt 0.906250 1.000000
vt 0.937500 1.000000
vt 0.968750 1.000000
vt 1.000000 1.000000
vt 0.000000 0.750000
vt 0.031250 0.750000
vt 0.062500 0.750000
vt 0.093750 0.750000
vt 0.125000 0.750000
vt 0.156250 0.750000
vt 0.187500 0.750000
vt 0.218750 0.750000
vt 0.250000 0.750000
vt 0.281250 0.750000
vt 0.312500 0.750000
vt 0.343750 0.750000
vt 0.375000 0.750000
vt 0.406250 0.750000
vt 0.437500 0.750000
vt 0.468750 0.750000
vt 0.500000 0.750000
vt 0.531250 0.750000
vt 0.562500 0.750000
vt 0.593750 0.750000
vt 0.625000 0.750000
vt 0.656250 0.750000
vt 0.687500 0.750000
vt 0.718750 0.750000
vt 0.750000 0.750000
vt 0.781250 0.750000
vt 0.812500 0.750000
vt 0.843750 0.750000
vt 0.875000 0.750000
vt 0.906250 0.750000
vt 0.937500 0.750000
vt 0.968750 0.750000
vt 1.000000 0.750000
vt 0.000000 0.500000
vt 0.031250 0.500000
vt 0.062500 0.500000
vt 0.093750 0.500000
vt 0.125000 0.500000
vt 0.156250 0.500000
vt 0.187500 0.500000
vt 0.218750 0.500000
vt 0.250000 0.500000
vt 0.281250 0.500000
vt 0.312500 0.500000
vt 0.343750 0.500000
vt 0.375000 0.500000
vt 0.406250 0.500000
vt 0.437500 0.500000
vt 0.468750 0.500000
vt 0.500000 0.500000
vt 0.531250 0.500000
vt 0.562500 0.500000
vt 0.593750 0.500000
vt 0.625000 0.500000
vt 0.656250 0.500000
vt 0.687500 0.500000
vt 0.718750 0.500000
vt 0.750000 0.500000
vt 0.781250 0.500000
vt 0.812500 0.500000
vt 0.843750 0.500000
vt 0.875000 0.500000
vt 0.906250 0.500000
vt 0.937500 0.500000
vt 0.968750 0.500000
vt 1.000000 0.500000
vt 0.000000 0.250000
vt 0.031250 0.250000
vt 0.062500 0.250000
vt 0.093750 0.250000
vt 0.125000 0.250000
vt 0.156250 0.250000
vt 0.187500 0.250000
vt 0.218750 0.250000
vt 0.250000 0.250000
vt 0.281250 0.250000
vt 0.312500 0.250000
vt 0.343750 0.250000
vt 0.375000 0.250000
vt 0.406250 0.250000
vt 0.437500 0.250000
vt 0.468750 0.250000
vt 0.500000 0.250000
vt 0.531250 0.250000
vt 0.562500 0.250000
vt 0.593750 0.250000
vt 0.625000 0.250000
vt 0.656250 0.250000
vt 0.687500 0.250000
vt 0.718750 0.250000
vt 0.750000 0.250000
vt 0.781250 0.250000
vt 0.812500 0.250000
vt 0.843750 0.250000
vt 0.875000 0.250000
vt 0.906250 0.250000
vt 0.937500 0.250000
vt 0.968750 0.250000
vt 1.000000 0.250000
vt 0.000000 0.000000
vt 0.031250 0.000000
vt 0.062500 0.000000
vt 0.093750 0.000000
vt 0.125000 0.000000
vt 0.156250 0.000000
vt 0.187500 0.000000
vt 0.218750 0.000000
vt 0.250000 0.000000
vt 0.281250 0.000000
vt 0.312500 0.000000
vt 0.343750 0.000000
vt 0.375000 0.000000
vt 0.406250 0.000000
vt 0.437500 0.000000
vt 0.468750 0.000000
vt 0.500000 0.000000
vt 0.531250 0.000000
vt 0.562500 0.000000
vt 0.593750 0.000000
vt 0.625000 0.000000
vt 0.656250 0.000000
vt 0.687500 0.000000
vt 0.718750 0.000000
vt 0.750000 0.000000
vt 0.781250 0.000000
vt 0.812500 0.000000
vt 0.843750 0.000000
vt 0.875000 0.000000
vt 0.906250 0.000000
vt 0.937500 0.000000
vt 0.968750 0.000000
vt 1.000000 0.000000
vn 0.883795 0.282508 -0.372954
vn 0.939250 0.283556 -0.193404
vn 0.939250 0.283556 -0.193404
vn 0.883795 0.282508 -0.372954
vn 0.794376 0.281542 -0.538238
vn 0.794376 0.281542 -0.538238
vn 0.674429 0.280695 -0.682902
vn 0.674429 0.280695 -0.682902
vn 0.528564 0.280000 -0.801386
vn 0.528564 0.280000 -0.801386
vn 0.362386 0.279484 -0.889137
vn 0.362386 0.279484 -0.889138
vn 0.182281 0.279166 -0.942783
vn 0.182281 0.279166 -0.942783
vn -0.004829 0.279058 -0.960262
vn -0.004829 0.279058 -0.960262
vn -0.191753 0.279166 -0.940902
vn -0.191753 0.279166 -0.940902
vn -0.371309 0.279484 -0.885448
vn -0.371309 0.279484 -0.885448
vn -0.536596 0.280000 -0.796030
vn -0.536596 0.280000 -0.796030
vn -0.681263 0.280695 -0.676085
vn -0.681263 0.280695 -0.676085
vn -0.799749 0.281542 -0.530222
vn -0.799749 0.281542 -0.530222
vn -0.887501 0.282508 -0.364047
vn -0.887501 0.282508 -0.364047
vn -0.941148 0.283556 -0.183945
vn -0.941148 0.283556 -0.183945
vn -0.958627 0.284646 0.003161
vn -0.958627 0.284646 0.003161
vn -0.939267 0.285737 0.190083
vn -0.939267 0.285737 0.190083
vn -0.883812 0.286785 0.369636
vn -0.883812 0.286785 0.369636
vn -0.794393 0.287751 0.534920
vn -0.794393 0.287751 0.534920
vn -0.674446 0.288598 0.679584
vn -0.674446 0.288598 0.679584
vn -0.528580 0.289293 0.798068
vn -0.528580 0.289293 0.798068
vn -0.362402 0.289809 0.885819
vn -0.362402 0.289809 0.885819
vn -0.182298 0.290127 0.939465
vn -0.182298 0.290127 0.939465
vn 0.004812 0.290235 0.956943
vn 0.004812 0.290235 0.956943
vn 0.191737 0.290127 0.937584
vn 0.191737 0.290127 0.937584
vn 0.371293 0.289809 0.882129
vn 0.371293 0.289809 0.882129
vn 0.536580 0.289293 0.792712
vn 0.536580 0.289293 0.792712
vn 0.681246 0.288598 0.672766
vn 0.681246 0.288598 0.672766
vn 0.799732 0.287751 0.526903
vn 0.799732 0.287751 0.526903
vn 0.887485 0.286785 0.360728
vn 0.887485 0.286785 0.360728
vn 0.941131 0.285737 0.180627
vn 0.941131 0.285737 0.180627
vn 0.958611 0.284647 -0.006483
vn 0.958611 0.284647 -0.006483
vn 0.921944 -0.002231 -0.387318
vn 0.979791 -0.001137 -0.200020
vn 0.979791 -0.001137 -0.200020
vn 0.921944 -0.002231 -0.387318
vn 0.828665 -0.003239 -0.559735
vn 0.828665 -0.003239 -0.559735
vn 0.703542 -0.004122 -0.710641
vn 0.703542 -0.004122 -0.710641
vn 0.551382 -0.004847 -0.834239
vn 0.551382 -0.004847 -0.834239
vn 0.378033 -0.005385 -0.925777
vn 0.378033 -0.005385 -0.925777
vn 0.190156 -0.005717 -0.981737
vn 0.190156 -0.005717 -0.981737
vn -0.005028 -0.005829 -0.999970
vn -0.005028 -0.005829 -0.999970
vn -0.200020 -0.005717 -0.979775
vn -0.200020 -0.005717 -0.979775
vn -0.387324 -0.005385 -0.921928
vn -0.387324 -0.005385 -0.921928
vn -0.559744 -0.004847 -0.828651
vn -0.559744 -0.004847 -0.828651
vn -0.710653 -0.004122 -0.703530
vn -0.710653 -0.004122 -0.703530
vn -0.834253 -0.003238 -0.551373
vn -0.834253 -0.003238 -0.551373
vn -0.925792 -0.002231 -0.378026
vn -0.925792 -0.002231 -0.378026
vn -0.981754 -0.001137 -0.190153
vn -0.981754 -0.001137 -0.190153
vn -0.999987 -0.000000 0.005028
vn -0.999987 -0.000000 0.005028
vn -0.979792 0.001137 0.200016
vn -0.979792 0.001137 0.200016
vn -0.921944 0.002231 0.387318
vn -0.921944 0.002231 0.387318
vn -0.828665 0.003238 0.559735
vn -0.828665 0.003238 0.559735
vn -0.703542 0.004122 0.710642
vn -0.703542 0.004122 0.710642
vn -0.551382 0.004847 0.834239
vn -0.551382 0.004847 0.834239
vn -0.378033 0.005385 0.925777
vn -0.378033 0.005385 0.925777
vn -0.190156 0.005717 0.981737
vn -0.190156 0.005717 0.981737
vn 0.005029 0.005829 0.999970
vn 0.005029 0.005829 0.999970
vn 0.200020 0.005717 0.979775
vn 0.200020 0.005717 0.979775
vn 0.387324 0.005385 0.921928
vn 0.387324 0.005385 0.921928
vn 0.559744 0.004847 0.828651
vn 0.559744 0.004847 0.828651
vn 0.710654 0.004122 0.703530
vn 0.710654 0.004122 0.703530
vn 0.834253 0.003238 0.551372
vn 0.834253 0.003238 0.551372
vn 0.925792 0.002231 0.378026
vn 0.925792 0.002231 0.378026
vn 0.981754 0.001137 0.190152
vn 0.981754 0.001137 0.190152
vn 0.999987 0.000000 -0.005032
vn 0.999987 0.000000 -0.005032
vn 0.883812 -0.286786 -0.369636
vn 0.939267 -0.285738 -0.190086
vn 0.939266 -0.285738 -0.190086
vn 0.883812 -0.286785 -0.369636
vn 0.794393 -0.287751 -0.534920
vn 0.794393 -0.287751 -0.534920
vn 0.674446 -0.288598 -0.679584
vn 0.674446 -0.288598 -0.679584
vn 0.528580 -0.289293 -0.798068
vn 0.528581 -0.289293 -0.798068
vn 0.362402 -0.289809 -0.885819
vn 0.362402 -0.289809 -0.885819
vn 0.182298 -0.290127 -0.939465
vn 0.182298 -0.290127 -0.939465
vn -0.004812 -0.290235 -0.956943
vn -0.004812 -0.290235 -0.956943
vn -0.191737 -0.290127 -0.937584
vn -0.191737 -0.290127 -0.937584
vn -0.371292 -0.289810 -0.882129
vn -0.371292 -0.289810 -0.882129
vn -0.536580 -0.289293 -0.792712
vn -0.536580 -0.289293 -0.792712
vn -0.681246 -0.288598 -0.672767
vn -0.681246 -0.288598 -0.672767
vn -0.799732 -0.287752 -0.526904
vn -0.799732 -0.287752 -0.526904
vn -0.887485 -0.286786 -0.360728
vn -0.887485 -0.286786 -0.360728
vn -0.941131 -0.285737 -0.180627
vn -0.941131 -0.285737 -0.180627
vn -0.958611 -0.284647 0.006480
vn -0.958611 -0.284647 0.006480
vn -0.939251 -0.283557 0.193401
vn -0.939251 -0.283557 0.193401
vn -0.883795 -0.282509 0.372954
vn -0.883795 -0.282509 0.372954
vn -0.794376 -0.281543 0.538238
vn -0.794376 -0.281543 0.538238
vn -0.674429 -0.280696 0.682902
vn -0.674429 -0.280696 0.682902
vn -0.528564 -0.280001 0.801386
vn -0.528564 -0.280001 0.801386
vn -0.362386 -0.279485 0.889137
vn -0.362386 -0.279485 0.889137
vn -0.182281 -0.279167 0.942783
vn -0.182281 -0.279167 0.942783
vn 0.004829 -0.279059 0.960262
vn 0.004829 -0.279059 0.960262
vn 0.191754 -0.279167 0.940902
vn 0.191754 -0.279167 0.940902
vn 0.371310 -0.279485 0.885448
vn 0.371310 -0.279485 0.885448
vn 0.536596 -0.280001 0.796030
vn 0.536596 -0.280001 0.796030
vn 0.681263 -0.280696 0.676085
vn 0.681263 -0.280696 0.676085
vn 0.799749 -0.281543 0.530222
vn 0.799749 -0.281543 0.530222
vn 0.887501 -0.282509 0.364047
vn 0.887501 -0.282509 0.364047
vn 0.941148 -0.283557 0.183945
vn 0.941148 -0.283557 0.183945
vn 0.958627 -0.284648 -0.003164
vn 0.958627 -0.284648 -0.003164
vn -0.921944 0.002231 0.387318
vn -0.979791 0.001137 0.200020
vn -0.979791 0.001137 0.200020
vn -0.921944 0.002231 0.387318
vn -0.828666 0.003239 0.559735
vn -0.828666 0.003239 0.559735
vn -0.703542 0.004122 0.710641
vn -0.703542 0.004122 0.710641
vn -0.551382 0.004847 0.834239
vn -0.551382 0.004847 0.834239
vn -0.378033 0.005385 0.925777
vn -0.378033 0.005385 0.925777
vn -0.190156 0.005717 0.981737
vn -0.190156 0.005717 0.981737
vn 0.005028 0.005829 0.999970
vn 0.005028 0.005829 0.999970
vn 0.200019 0.005717 0.979775
vn 0.200019 0.005717 0.979775
vn 0.387324 0.005385 0.921928
vn 0.387324 0.005385 0.921928
vn 0.559744 0.004847 0.828651
vn 0.559744 0.004847 0.828651
vn 0.710653 0.004122 0.703530
vn 0.710653 0.004122 0.703530
vn 0.834253 0.003238 0.551373
vn 0.834253 0.003238 0.551373
vn 0.925792 0.002231 0.378026
vn 0.925792 0.002231 0.378026
vn 0.981754 0.001137 0.190153
vn 0.981754 0.001137 0.190153
vn 0.999987 0.000000 -0.005029
vn 0.999987 0.000000 -0.005029
vn 0.979792 -0.001137 -0.200016
vn 0.979792 -0.001137 -0.200016
vn 0.921944 -0.002230 -0.387318
vn 0.921944 -0.002230 -0.387318
vn 0.828665 -0.003238 -0.559735
vn 0.828665 -0.003238 -0.559735
vn 0.703542 -0.004122 -0.710642
vn 0.703542 -0.004122 -0.710642
vn 0.551382 -0.004847 -0.834239
vn 0.551382 -0.004847 -0.834239
vn 0.378033 -0.005385 -0.925777
vn 0.378033 -0.005385 -0.925777
vn 0.190156 -0.005717 -0.981737
vn 0.190156 -0.005717 -0.981737
vn -0.005028 -0.005829 -0.999970
vn -0.005028 -0.005829 -0.999970
vn -0.200020 -0.005717 -0.979775
vn -0.200020 -0.005717 -0.979775
vn -0.387325 -0.005385 -0.921928
vn -0.387324 -0.005385 -0.921928
vn -0.559744 -0.004847 -0.828651
vn -0.559744 -0.004847 -0.828651
vn -0.710654 -0.004122 -0.703530
vn -0.710654 -0.004122 -0.703530
vn -0.834253 -0.003238 -0.551372
vn -0.834253 -0.003238 -0.551372
vn -0.925792 -0.002231 -0.378026
vn -0.925792 -0.002231 -0.378026
vn -0.981754 -0.001137 -0.190152
vn -0.981754 -0.001137 -0.190152
vn -0.999987 0.000000 0.005032
vn -0.999987 0.000000 0.005032
s 1
g pTorus1
usemtl initialShadingGroup
f 2/2/1 1/1/2 33/34/3 34/35/4
f 3/3/5 2/2/1 34/35/4 35/36/6
f 4/4/7 3/3/5 35/36/6 36/37/8
f 5/5/9 4/4/7 36/37/8 37/38/10
f 6/6/11 5/5/9 37/38/10 38/39/12
f 7/7/13 6/6/11 38/39/12 39/40/14
f 8/8/15 7/7/13 39/40/14 40/41/16
f 9/9/17 8/8/15 40/41/16 41/42/18
f 10/10/19 9/9/17 41/42/18 42/43/20
f 11/11/21 10/10/19 42/43/20 43/44/22
f 12/12/23 11/11/21 43/44/22 44/45/24
f 13/13/25 12/12/23 44/45/24 45/46/26
f 14/14/27 13/13/25 45/46/26 46/47/28
f 15/15/29 14/14/27 46/47/28 47/48/30
f 16/16/31 15/15/29 47/48/30 48/49/32
f 17/17/33 16/16/31 48/49/32 49/50/34
f 18/18/35 17/17/33 49/50/34 50/51/36
f 19/19/37 18/18/35 50/51/36 51/52/38
f 20/20/39 19/19/37 51/52/38 52/53/40
f 21/21/41 20/20/39 52/53/40 53/54/42
f 22/22/43 21/21/41 53/54/42 54/55/44
f 23/23/45 22/22/43 54/55/44 55/56/46
f 24/24/47 23/23/45 55/56/46 56/57/48
f 25/25/49 24/24/47 56/57/48 57/58/50
f 26/26/51 25/25/49 57/58/50 58/59/52
f 27/27/53 26/26/51 58/59/52 59/60/54
f 28/28/55 27/27/53 59/60/54 60/61/56
f 29/29/57 28/28/55 60/61/56 61/62/58
f 30/30/59 29/29/57 61/62/58 62/63/60
f 31/31/61 30/30/59 62/63/60 63/64/62
f 32/32/63 31/31/61 63/64/62 64/65/64
f 1/33/2 32/32/63 64/65/64 33/66/3
s 2
f 34/35/65 33/34/66 65/67/67 66/68/68
f 35/36/69 34/35/65 66/68/68 67/69/70
f 36/37/71 35/36/69 67/69/70 68/70/72
f 37/38/73 36/37/71 68/70/72 69/71/74
f 38/39/75 37/38/73 69/71/74 70/72/76
f 39/40/77 38/39/75 70/72/76 71/73/78
f 40/41/79 39/40/77 71/73/78 72/74/80
f 41/42/81 40/41/79 72/74/80 73/75/82
f 42/43/83 41/42/81 73/75/82 74/76/84
f 43/44/85 42/43/83 74/76/84 75/77/86
f 44/45/87 43/44/85 75/77/86 76/78/88
f 45/46/89 44/45/87 76/78/88 77/79/90
f 46/47/91 45/46/89 77/79/90 78/80/92
f 47/48/93 46/47/91 78/80/92 79/81/94
f 48/49/95 47/48/93 79/81/94 80/82/96
f 49/50/97 48/49/95 80/82/96 81/83/98
f 50/51/99 49/50/97 81/83/98 82/84/100
f 51/52/101 50/51/99 82/84/100 83/85/102
f 52/53/103 51/52/101 83/85/102 84/86/104
f 53/54/105 52/53/103 84/86/104 85/87/106
f 54/55/107 53/54/105 85/87/106 86/88/108
f 55/56/109 54/55/107 86/88/108 87/89/110
f 56/57/111 55/56/109 87/89/110 88/90/112
f 57/58/113 56/57/111 88/90/112 89/91/114
f 58/59/115 57/58/113 89/91/114 90/92/116
f 59/60/117 58/59/115 90/92/116 91/93/118
f 60/61/119 59/60/117 91/93/118 92/94/120
f 61/62/121 60/61/119 92/94/120 93/95/122
f 62/63/123 61/62/121 93/95/122 94/96/124
f 63/64/125 62/63/123 94/96/124 95/97/126
f 64/65/127 63/64/125 95/97/126 96/98/128
f 33/66/66 64/65/127 96/98/128 65/99/67
s 3
f 66/68/129 65/67/130 97/100/131 98/101/132
f 67/69/133 66/68/129 98/101/132 99/102/134
f 68/70/135 67/69/133 99/102/134 100/103/136
f 69/71/137 68/70/135 100/103/136 101/104/138
f 70/72/139 69/71/137 101/104/138 102/105/140
f 71/73/141 70/72/139 102/105/140 103/106/142
f 72/74/143 71/73/141 103/106/142 104/107/144
f 73/75/145 72/74/143 104/107/144 105/108/146
f 74/76/147 73/75/145 105/108/146 106/109/148
f 75/77/149 74/76/147 106/109/148 107/110/150
f 76/78/151 75/77/149 107/110/150 108/111/152
f 77/79/153 76/78/151 108/111/152 109/112/154
f 78/80/155 77/79/153 109/112/154 110/113/156
f 79/81/157 78/80/155 110/113/156 111/114/158
f 80/82/159 79/81/157 111/114/158 112/115/160
f 81/83/161 80/82/159 112/115/160 113/116/162
f 82/84/163 81/83/161 113/116/162 114/117/164
f 83/85/165 82/84/163 114/117/164 115/118/166
f 84/86/167 83/85/165 115/118/166 116/119/168
f 85/87/169 84/86/167 116/119/168 117/120/170
f 86/88/171 85/87/169 117/120/170 118/121/172
f 87/89/173 86/88/171 118/121/172 119/122/174
f 88/90/175 87/89/173 119/122/174 120/123/176
f 89/91/177 88/90/175 120/123/176 121/124/178
f 90/92/179 89/91/177 121/124/178 122/125/180
f 91/93/181 90/92/179 122/125/180 123/126/182
f 92/94/183 91/93/181 123/126/182 124/127/184
f 93/95/185 92/94/183 124/127/184 125/128/186
f 94/96/187 93/95/185 125/128/186 126/129/188
f 95/97/189 94/96/187 126/129/188 127/130/190
f 96/98/191 95/97/189 127/130/190 128/131/192
f 65/99/130 96/98/191 128/131/192 97/132/131
s 4
f 98/101/193 97/100/194 1/133/195 2/134/196
f 99/102/197 98/101/193 2/134/196 3/135/198
f 100/103/199 99/102/197 3/135/198 4/136/200
f 101/104/201 100/103/199 4/136/200 5/137/202
f 102/105/203 101/104/201 5/137/202 6/138/204
f 103/106/205 102/105/203 6/138/204 7/139/206
f 104/107/207 103/106/205 7/139/206 8/140/208
f 105/108/209 104/107/207 8/140/208 9/141/210
f 106/109/211 105/108/209 9/141/210 10/142/212
f 107/110/213 106/109/211 10/142/212 11/143/214
f 108/111/215 107/110/213 11/143/214 12/144/216
f 109/112/217 108/111/215 12/144/216 13/145/218
f 110/113/219 109/112/217 13/145/218 14/146/220
f 111/114/221 110/113/219 14/146/220 15/147/222
f 112/115/223 111/114/221 15/147/222 16/148/224
f 113/116/225 112/115/223 16/148/224 17/149/226
f 114/117/227 113/116/225 17/149/226 18/150/228
f 115/118/229 114/117/227 18/150/228 19/151/230
f 116/119/231 115/118/229 19/151/230 20/152/232
f 117/120/233 116/119/231 20/152/232 21/153/234
f 118/121/235 117/120/233 21/153/234 22/154/236
f 119/122/237 118/121/235 22/154/236 23/155/238
f 120/123/239 119/122/237 23/155/238 24/156/240
f 121/124/241 120/123/239 24/156/240 25/157/242
f 122/125/243 121/124/241 25/157/242 26/158/244
f 123/126/245 122/125/243 26/158/244 27/159/246
f 124/127/247 123/126/245 27/159/246 28/160/248
f 125/128/249 124/127/247 28/160/248 29/161/250
f 126/129/251 125/128/249 29/161/250 30/162/252
f 127/130/253 126/129/251 30/162/252 31/163/254
f 128/131/255 127/130/253 31/163/254 32/164/256
f 97/132/194 128/131/255 32/164/256 1/165/195
