# This file uses centimeters as units for non-parametric coordinates.

mtllib SpaceStation1.mtl
g default
v 14.376977 2.154744 -2.947613
v 13.528136 2.138698 -5.695992
v 12.159414 2.123911 -8.225965
v 10.323411 2.110950 -10.440305
v 8.090680 2.100312 -12.253916
v 5.547028 2.092408 -13.597104
v 2.790203 2.087541 -14.418247
v -0.073850 2.085898 -14.685792
v -2.935067 2.087541 -14.389457
v -5.683495 2.092408 -13.540630
v -8.213511 2.100312 -12.171930
v -10.427890 2.110949 -10.335955
v -12.241533 2.123911 -8.103263
v -13.584744 2.138698 -5.559653
v -14.405902 2.154744 -2.802874
v -14.673453 2.171430 0.061132
v -14.377113 2.188117 2.922302
v -13.528272 2.204162 5.670683
v -12.159548 2.218950 8.200657
v -10.323542 2.231911 10.414998
v -8.090810 2.242548 12.228611
v -5.547155 2.250452 13.571798
v -2.790328 2.255319 14.392942
v 0.073727 2.256963 14.660487
v 2.934947 2.255319 14.364152
v 5.683375 2.250452 13.515323
v 8.213393 2.242548 12.146621
v 10.427772 2.231911 10.310645
v 12.241416 2.218950 8.077950
v 13.584627 2.204162 5.534337
v 14.405786 2.188117 2.777556
v 14.673335 2.171430 -0.086451
v 15.085890 1.057919 -3.085936
v 14.195196 1.041083 -5.969829
v 12.758987 1.025566 -8.624545
v 10.832455 1.011966 -10.948066
v 8.489638 1.000804 -12.851100
v 5.820567 0.992510 -14.260515
v 2.927813 0.987403 -15.122146
v -0.077456 0.985679 -15.402882
v -3.079750 0.987403 -15.091936
v -5.963692 0.992510 -14.201257
v -8.618456 1.000804 -12.765072
v -10.942017 1.011966 -10.838573
v -12.845085 1.025566 -8.495794
v -14.254524 1.041083 -5.826766
v -15.116171 1.057919 -2.934060
v -15.396912 1.075428 0.071159
v -15.085962 1.092938 3.073403
v -14.195267 1.109774 5.957297
v -12.759056 1.125291 8.612015
v -10.832524 1.138891 10.935537
v -8.489704 1.150053 12.838573
v -5.820630 1.158347 14.247987
v -2.927874 1.163454 15.109620
v 0.077397 1.165178 15.390357
v 3.079694 1.163454 15.079410
v 5.963638 1.158347 14.188728
v 8.618401 1.150053 12.752541
v 10.941965 1.138891 10.826040
v 12.845032 1.125291 8.483257
v 14.254472 1.109774 5.814228
v 15.116118 1.092938 2.921520
v 15.396860 1.075428 -0.083701
v 15.085954 -1.092938 -3.073398
v 14.195259 -1.109774 -5.957291
v 12.759050 -1.125291 -8.612007
v 10.832519 -1.138891 -10.935529
v 8.489702 -1.150053 -12.838563
v 5.820630 -1.158347 -14.247978
v 2.927876 -1.163454 -15.109608
v -0.077393 -1.165178 -15.390345
v -3.079687 -1.163454 -15.079399
v -5.963629 -1.158347 -14.188720
v -8.618393 -1.150053 -12.752535
v -10.941954 -1.138891 -10.826035
v -12.845022 -1.125291 -8.483256
v -14.254461 -1.109774 -5.814229
v -15.116107 -1.092938 -2.921523
v -15.396849 -1.075429 0.083696
v -15.085899 -1.057919 3.085941
v -14.195203 -1.041083 5.969835
v -12.758993 -1.025566 8.624553
v -10.832461 -1.011966 10.948074
v -8.489641 -1.000804 12.851111
v -5.820567 -0.992510 14.260525
v -2.927811 -0.987403 15.122157
v 0.077460 -0.985679 15.402894
v 3.079757 -0.987403 15.091947
v 5.963700 -0.992510 14.201265
v 8.618464 -1.000804 12.765078
v 10.942027 -1.011966 10.838577
v 12.845095 -1.025566 8.495794
v 14.254535 -1.041083 5.826765
v 15.116181 -1.057919 2.934057
v 15.396923 -1.075429 -0.071164
v 14.377103 -2.188116 -2.922298
v 13.528262 -2.204162 -5.670677
v 12.159541 -2.218949 -8.200650
v 10.323537 -2.231910 -10.414990
v 8.090808 -2.242547 -12.228600
v 5.547155 -2.250451 -13.571788
v 2.790330 -2.255319 -14.392931
v -0.073723 -2.256962 -14.660477
v -2.934940 -2.255319 -14.364141
v -5.683367 -2.250452 -13.515314
v -8.213384 -2.242547 -12.146614
v -10.427762 -2.231910 -10.310641
v -12.241406 -2.218949 -8.077948
v -13.584615 -2.204162 -5.534337
v -14.405774 -2.188116 -2.777559
v -14.673324 -2.171430 0.086447
v -14.376984 -2.154743 2.947617
v -13.528143 -2.138698 5.695998
v -12.159420 -2.123910 8.225971
v -10.323414 -2.110949 10.440312
v -8.090682 -2.100312 12.253925
v -5.547027 -2.092408 13.597112
v -2.790201 -2.087541 14.418256
v 0.073854 -2.085897 14.685801
v 2.935073 -2.087541 14.389466
v 5.683502 -2.092408 13.540636
v 8.213520 -2.100312 12.171935
v 10.427900 -2.110949 10.335959
v 12.241543 -2.123910 8.103265
v 13.584753 -2.138698 5.559651
v 14.405912 -2.154743 2.802870
v 14.673461 -2.171430 -0.061137
vt 0.000000 1.000000
vt 0.031250 1.000000
vt 0.062500 1.000000
vt 0.093750 1.000000
vt 0.125000 1.000000
vt 0.156250 1.000000
vt 0.187500 1.000000
vt 0.218750 1.000000
vt 0.250000 1.000000
vt 0.281250 1.000000
vt 0.312500 1.000000
vt 0.343750 1.000000
vt 0.375000 1.000000
vt 0.406250 1.000000
vt 0.437500 1.000000
vt 0.468750 1.000000
vt 0.500000 1.000000
vt 0.531250 1.000000
vt 0.562500 1.000000
vt 0.593750 1.000000
vt 0.625000 1.000000
vt 0.656250 1.000000
vt 0.687500 1.000000
vt 0.718750 1.000000
vt 0.750000 1.000000
vt 0.781250 1.000000
vt 0.812500 1.000000
vt 0.843750 1.000000
vt 0.875000 1.000000
vt 0.906250 1.000000
vt 0.937500 1.000000
vt 0.968750 1.000000
vt 1.000000 1.000000
vt 0.000000 0.750000
vt 0.031250 0.750000
vt 0.062500 0.750000
vt 0.093750 0.750000
vt 0.125000 0.750000
vt 0.156250 0.750000
vt 0.187500 0.750000
vt 0.218750 0.750000
vt 0.250000 0.750000
vt 0.281250 0.750000
vt 0.312500 0.750000
vt 0.343750 0.750000
vt 0.375000 0.750000
vt 0.406250 0.750000
vt 0.437500 0.750000
vt 0.468750 0.750000
vt 0.500000 0.750000
vt 0.531250 0.750000
vt 0.562500 0.750000
vt 0.593750 0.750000
vt 0.625000 0.750000
vt 0.656250 0.750000
vt 0.687500 0.750000
vt 0.718750 0.750000
vt 0.750000 0.750000
vt 0.781250 0.750000
vt 0.812500 0.750000
vt 0.843750 0.750000
vt 0.875000 0.750000
vt 0.906250 0.750000
vt 0.937500 0.750000
vt 0.968750 0.750000
vt 1.000000 0.750000
vt 0.000000 0.500000
vt 0.031250 0.500000
vt 0.062500 0.500000
vt 0.093750 0.500000
vt 0.125000 0.500000
vt 0.156250 0.500000
vt 0.187500 0.500000
vt 0.218750 0.500000
vt 0.250000 0.500000
vt 0.281250 0.500000
vt 0.312500 0.500000
vt 0.343750 0.500000
vt 0.375000 0.500000
vt 0.406250 0.500000
vt 0.437500 0.500000
vt 0.468750 0.500000
vt 0.500000 0.500000
vt 0.531250 0.500000
vt 0.562500 0.500000
vt 0.593750 0.500000
vt 0.625000 0.500000
vt 0.656250 0.500000
vt 0.687500 0.500000
vt 0.718750 0.500000
vt 0.750000 0.500000
vt 0.781250 0.500000
vt 0.812500 0.500000
vt 0.843750 0.500000
vt 0.875000 0.500000
vt 0.906250 0.500000
vt 0.937500 0.500000
vt 0.968750 0.500000
vt 1.000000 0.500000
vt 0.000000 0.250000
vt 0.031250 0.250000
vt 0.062500 0.250000
vt 0.093750 0.250000
vt 0.125000 0.250000
vt 0.156250 0.250000
vt 0.187500 0.250000
vt 0.218750 0.250000
vt 0.250000 0.250000
vt 0.281250 0.250000
vt 0.312500 0.250000
vt 0.343750 0.250000
vt 0.375000 0.250000
vt 0.406250 0.250000
vt 0.437500 0.250000
vt 0.468750 0.250000
vt 0.500000 0.250000
vt 0.531250 0.250000
vt 0.562500 0.250000
vt 0.593750 0.250000
vt 0.625000 0.250000
vt 0.656250 0.250000
vt 0.687500 0.250000
vt 0.718750 0.250000
vt 0.750000 0.250000
vt 0.781250 0.250000
vt 0.812500 0.250000
vt 0.843750 0.250000
vt 0.875000 0.250000
vt 0.906250 0.250000
vt 0.937500 0.250000
vt 0.968750 0.250000
vt 1.000000 0.250000
vt 0.000000 0.000000
vt 0.031250 0.000000
vt 0.062500 0.000000
vt 0.093750 0.000000
vt 0.125000 0.000000
vt 0.156250 0.000000
vt 0.187500 0.000000
vt 0.218750 0.000000
vt 0.250000 0.000000
vt 0.281250 0.000000
vt 0.312500 0.000000
vt 0.343750 0.000000
vt 0.375000 0.000000
vt 0.406250 0.000000
vt 0.437500 0.000000
vt 0.468750 0.000000
vt 0.500000 0.000000
vt 0.531250 0.000000
vt 0.562500 0.000000
vt 0.593750 0.000000
vt 0.625000 0.000000
vt 0.656250 0.000000
vt 0.687500 0.000000
vt 0.718750 0.000000
vt 0.750000 0.000000
vt 0.781250 0.000000
vt 0.812500 0.000000
vt 0.843750 0.000000
vt 0.875000 0.000000
vt 0.906250 0.000000
vt 0.937500 0.000000
vt 0.968750 0.000000
vt 1.000000 0.000000
vn 0.769406 0.549039 -0.326453
vn 0.817683 0.549952 -0.170141
vn 0.817683 0.549952 -0.170141
vn 0.769406 0.549039 -0.326453
vn 0.691559 0.548198 -0.470346
vn 0.691559 0.548198 -0.470346
vn 0.587136 0.547461 -0.596287
vn 0.587135 0.547461 -0.596288
vn 0.460148 0.546856 -0.699437
vn 0.460148 0.546856 -0.699437
vn 0.315477 0.546406 -0.775832
vn 0.315477 0.546406 -0.775832
vn 0.158682 0.546129 -0.822535
vn 0.158682 0.546129 -0.822535
vn -0.004213 0.546036 -0.837752
vn -0.004213 0.546036 -0.837752
vn -0.166945 0.546129 -0.820897
vn -0.166945 0.546129 -0.820897
vn -0.323263 0.546406 -0.772620
vn -0.323263 0.546406 -0.772620
vn -0.467159 0.546856 -0.694774
vn -0.467159 0.546856 -0.694774
vn -0.593102 0.547461 -0.590353
vn -0.593102 0.547461 -0.590353
vn -0.696254 0.548198 -0.463367
vn -0.696254 0.548198 -0.463367
vn -0.772649 0.549039 -0.318699
vn -0.772649 0.549039 -0.318699
vn -0.819353 0.549952 -0.161906
vn -0.819353 0.549952 -0.161906
vn -0.834570 0.550900 0.000985
vn -0.834570 0.550900 0.000985
vn -0.817716 0.551850 0.163715
vn -0.817716 0.551850 0.163715
vn -0.769438 0.552762 0.320030
vn -0.769438 0.552762 0.320031
vn -0.691591 0.553604 0.463924
vn -0.691591 0.553604 0.463924
vn -0.587167 0.554341 0.589865
vn -0.587168 0.554341 0.589865
vn -0.460180 0.554946 0.693015
vn -0.460180 0.554946 0.693015
vn -0.315509 0.555395 0.769409
vn -0.315509 0.555395 0.769409
vn -0.158714 0.555672 0.816112
vn -0.158714 0.555672 0.816112
vn 0.004180 0.555766 0.831328
vn 0.004180 0.555766 0.831328
vn 0.166913 0.555673 0.814474
vn 0.166913 0.555672 0.814474
vn 0.323231 0.555395 0.766197
vn 0.323231 0.555395 0.766197
vn 0.467127 0.554946 0.688352
vn 0.467127 0.554946 0.688352
vn 0.593070 0.554341 0.583930
vn 0.593070 0.554341 0.583930
vn 0.696221 0.553604 0.456944
vn 0.696221 0.553604 0.456944
vn 0.772617 0.552763 0.312276
vn 0.772617 0.552763 0.312276
vn 0.819321 0.551850 0.155483
vn 0.819321 0.551850 0.155483
vn 0.834538 0.550901 -0.007411
vn 0.834538 0.550901 -0.007411
vn 0.921944 -0.002231 -0.387318
vn 0.979791 -0.001137 -0.200020
vn 0.979791 -0.001137 -0.200020
vn 0.921944 -0.002231 -0.387318
vn 0.828665 -0.003239 -0.559735
vn 0.828665 -0.003239 -0.559735
vn 0.703542 -0.004122 -0.710641
vn 0.703542 -0.004122 -0.710641
vn 0.551382 -0.004847 -0.834239
vn 0.551382 -0.004847 -0.834239
vn 0.378033 -0.005385 -0.925777
vn 0.378033 -0.005385 -0.925777
vn 0.190156 -0.005717 -0.981737
vn 0.190156 -0.005717 -0.981737
vn -0.005028 -0.005829 -0.999970
vn -0.005028 -0.005829 -0.999970
vn -0.200020 -0.005717 -0.979775
vn -0.200020 -0.005717 -0.979775
vn -0.387324 -0.005385 -0.921928
vn -0.387324 -0.005385 -0.921928
vn -0.559744 -0.004847 -0.828651
vn -0.559744 -0.004847 -0.828651
vn -0.710653 -0.004122 -0.703530
vn -0.710653 -0.004122 -0.703530
vn -0.834253 -0.003238 -0.551373
vn -0.834253 -0.003238 -0.551373
vn -0.925792 -0.002231 -0.378026
vn -0.925792 -0.002231 -0.378026
vn -0.981754 -0.001137 -0.190153
vn -0.981754 -0.001137 -0.190153
vn -0.999987 -0.000000 0.005028
vn -0.999987 -0.000000 0.005028
vn -0.979792 0.001137 0.200016
vn -0.979792 0.001137 0.200016
vn -0.921944 0.002231 0.387318
vn -0.921944 0.002231 0.387318
vn -0.828665 0.003238 0.559735
vn -0.828665 0.003238 0.559735
vn -0.703542 0.004122 0.710642
vn -0.703542 0.004122 0.710642
vn -0.551382 0.004847 0.834239
vn -0.551382 0.004847 0.834239
vn -0.378033 0.005385 0.925777
vn -0.378033 0.005385 0.925777
vn -0.190156 0.005717 0.981737
vn -0.190156 0.005717 0.981737
vn 0.005029 0.005829 0.999970
vn 0.005029 0.005829 0.999970
vn 0.200020 0.005717 0.979775
vn 0.200020 0.005717 0.979775
vn 0.387324 0.005385 0.921928
vn 0.387324 0.005385 0.921928
vn 0.559744 0.004847 0.828651
vn 0.559744 0.004847 0.828651
vn 0.710654 0.004122 0.703530
vn 0.710654 0.004122 0.703530
vn 0.834253 0.003238 0.551372
vn 0.834253 0.003238 0.551372
vn 0.925792 0.002231 0.378026
vn 0.925792 0.002231 0.378026
vn 0.981754 0.001137 0.190152
vn 0.981754 0.001137 0.190152
vn 0.999987 0.000000 -0.005032
vn 0.999987 0.000000 -0.005032
vn 0.769437 -0.552763 -0.320030
vn 0.817714 -0.551851 -0.163718
vn 0.817714 -0.551851 -0.163718
vn 0.769437 -0.552763 -0.320030
vn 0.691591 -0.553604 -0.463923
vn 0.691591 -0.553604 -0.463923
vn 0.587168 -0.554341 -0.589865
vn 0.587168 -0.554341 -0.589865
vn 0.460180 -0.554946 -0.693015
vn 0.460180 -0.554946 -0.693015
vn 0.315509 -0.555396 -0.769409
vn 0.315509 -0.555396 -0.769409
vn 0.158714 -0.555672 -0.816112
vn 0.158714 -0.555672 -0.816112
vn -0.004180 -0.555766 -0.831328
vn -0.004180 -0.555766 -0.831328
vn -0.166913 -0.555673 -0.814474
vn -0.166913 -0.555673 -0.814474
vn -0.323230 -0.555396 -0.766197
vn -0.323230 -0.555396 -0.766197
vn -0.467126 -0.554947 -0.688351
vn -0.467126 -0.554947 -0.688351
vn -0.593070 -0.554342 -0.583930
vn -0.593070 -0.554342 -0.583930
vn -0.696221 -0.553604 -0.456945
vn -0.696221 -0.553604 -0.456945
vn -0.772617 -0.552763 -0.312276
vn -0.772617 -0.552763 -0.312276
vn -0.819320 -0.551851 -0.155483
vn -0.819320 -0.551851 -0.155483
vn -0.834538 -0.550901 0.007408
vn -0.834538 -0.550901 0.007408
vn -0.817683 -0.549952 0.170138
vn -0.817683 -0.549952 0.170138
vn -0.769405 -0.549040 0.326453
vn -0.769405 -0.549040 0.326453
vn -0.691558 -0.548199 0.470346
vn -0.691558 -0.548199 0.470346
vn -0.587135 -0.547462 0.596287
vn -0.587135 -0.547462 0.596287
vn -0.460148 -0.546857 0.699437
vn -0.460148 -0.546857 0.699437
vn -0.315476 -0.546407 0.775831
vn -0.315476 -0.546407 0.775831
vn -0.158681 -0.546131 0.822534
vn -0.158681 -0.546131 0.822534
vn 0.004213 -0.546037 0.837750
vn 0.004213 -0.546037 0.837750
vn 0.166946 -0.546131 0.820896
vn 0.166946 -0.546131 0.820896
vn 0.323263 -0.546407 0.772619
vn 0.323263 -0.546407 0.772619
vn 0.467158 -0.546857 0.694774
vn 0.467158 -0.546857 0.694774
vn 0.593102 -0.547462 0.590352
vn 0.593102 -0.547462 0.590352
vn 0.696254 -0.548199 0.463367
vn 0.696254 -0.548199 0.463367
vn 0.772649 -0.549040 0.318698
vn 0.772649 -0.549040 0.318698
vn 0.819353 -0.549953 0.161905
vn 0.819353 -0.549953 0.161905
vn 0.834569 -0.550902 -0.000988
vn 0.834569 -0.550902 -0.000988
vn -0.921944 0.002231 0.387318
vn -0.979791 0.001138 0.200020
vn -0.979791 0.001138 0.200020
vn -0.921944 0.002231 0.387318
vn -0.828666 0.003239 0.559735
vn -0.828666 0.003239 0.559735
vn -0.703542 0.004122 0.710641
vn -0.703542 0.004122 0.710641
vn -0.551382 0.004847 0.834239
vn -0.551382 0.004847 0.834239
vn -0.378033 0.005386 0.925777
vn -0.378033 0.005386 0.925777
vn -0.190156 0.005717 0.981737
vn -0.190156 0.005717 0.981737
vn 0.005028 0.005829 0.999970
vn 0.005028 0.005829 0.999970
vn 0.200019 0.005717 0.979775
vn 0.200019 0.005717 0.979775
vn 0.387324 0.005386 0.921928
vn 0.387324 0.005386 0.921928
vn 0.559744 0.004847 0.828651
vn 0.559744 0.004847 0.828651
vn 0.710653 0.004122 0.703530
vn 0.710653 0.004122 0.703530
vn 0.834253 0.003239 0.551373
vn 0.834253 0.003239 0.551373
vn 0.925792 0.002231 0.378026
vn 0.925792 0.002231 0.378026
vn 0.981754 0.001137 0.190153
vn 0.981754 0.001137 0.190153
vn 0.999987 0.000000 -0.005029
vn 0.999987 0.000000 -0.005029
vn 0.979792 -0.001137 -0.200016
vn 0.979792 -0.001137 -0.200016
vn 0.921944 -0.002230 -0.387318
vn 0.921944 -0.002230 -0.387318
vn 0.828665 -0.003238 -0.559735
vn 0.828665 -0.003238 -0.559735
vn 0.703542 -0.004122 -0.710642
vn 0.703542 -0.004122 -0.710642
vn 0.551382 -0.004846 -0.834239
vn 0.551382 -0.004846 -0.834239
vn 0.378033 -0.005385 -0.925777
vn 0.378033 -0.005385 -0.925777
vn 0.190156 -0.005717 -0.981737
vn 0.190156 -0.005717 -0.981737
vn -0.005028 -0.005829 -0.999970
vn -0.005028 -0.005829 -0.999970
vn -0.200020 -0.005717 -0.979775
vn -0.200020 -0.005717 -0.979775
vn -0.387325 -0.005385 -0.921928
vn -0.387324 -0.005385 -0.921928
vn -0.559744 -0.004846 -0.828651
vn -0.559744 -0.004846 -0.828651
vn -0.710654 -0.004122 -0.703530
vn -0.710654 -0.004122 -0.703530
vn -0.834253 -0.003238 -0.551372
vn -0.834253 -0.003238 -0.551372
vn -0.925792 -0.002231 -0.378026
vn -0.925792 -0.002231 -0.378026
vn -0.981754 -0.001137 -0.190152
vn -0.981754 -0.001137 -0.190152
vn -0.999987 0.000000 0.005032
vn -0.999987 0.000000 0.005032
s 1
g pTorus1
usemtl initialShadingGroup
f 2/2/1 1/1/2 33/34/3 34/35/4
f 3/3/5 2/2/1 34/35/4 35/36/6
f 4/4/7 3/3/5 35/36/6 36/37/8
f 5/5/9 4/4/7 36/37/8 37/38/10
f 6/6/11 5/5/9 37/38/10 38/39/12
f 7/7/13 6/6/11 38/39/12 39/40/14
f 8/8/15 7/7/13 39/40/14 40/41/16
f 9/9/17 8/8/15 40/41/16 41/42/18
f 10/10/19 9/9/17 41/42/18 42/43/20
f 11/11/21 10/10/19 42/43/20 43/44/22
f 12/12/23 11/11/21 43/44/22 44/45/24
f 13/13/25 12/12/23 44/45/24 45/46/26
f 14/14/27 13/13/25 45/46/26 46/47/28
f 15/15/29 14/14/27 46/47/28 47/48/30
f 16/16/31 15/15/29 47/48/30 48/49/32
f 17/17/33 16/16/31 48/49/32 49/50/34
f 18/18/35 17/17/33 49/50/34 50/51/36
f 19/19/37 18/18/35 50/51/36 51/52/38
f 20/20/39 19/19/37 51/52/38 52/53/40
f 21/21/41 20/20/39 52/53/40 53/54/42
f 22/22/43 21/21/41 53/54/42 54/55/44
f 23/23/45 22/22/43 54/55/44 55/56/46
f 24/24/47 23/23/45 55/56/46 56/57/48
f 25/25/49 24/24/47 56/57/48 57/58/50
f 26/26/51 25/25/49 57/58/50 58/59/52
f 27/27/53 26/26/51 58/59/52 59/60/54
f 28/28/55 27/27/53 59/60/54 60/61/56
f 29/29/57 28/28/55 60/61/56 61/62/58
f 30/30/59 29/29/57 61/62/58 62/63/60
f 31/31/61 30/30/59 62/63/60 63/64/62
f 32/32/63 31/31/61 63/64/62 64/65/64
f 1/33/2 32/32/63 64/65/64 33/66/3
s 2
f 34/35/65 33/34/66 65/67/67 66/68/68
f 35/36/69 34/35/65 66/68/68 67/69/70
f 36/37/71 35/36/69 67/69/70 68/70/72
f 37/38/73 36/37/71 68/70/72 69/71/74
f 38/39/75 37/38/73 69/71/74 70/72/76
f 39/40/77 38/39/75 70/72/76 71/73/78
f 40/41/79 39/40/77 71/73/78 72/74/80
f 41/42/81 40/41/79 72/74/80 73/75/82
f 42/43/83 41/42/81 73/75/82 74/76/84
f 43/44/85 42/43/83 74/76/84 75/77/86
f 44/45/87 43/44/85 75/77/86 76/78/88
f 45/46/89 44/45/87 76/78/88 77/79/90
f 46/47/91 45/46/89 77/79/90 78/80/92
f 47/48/93 46/47/91 78/80/92 79/81/94
f 48/49/95 47/48/93 79/81/94 80/82/96
f 49/50/97 48/49/95 80/82/96 81/83/98
f 50/51/99 49/50/97 81/83/98 82/84/100
f 51/52/101 50/51/99 82/84/100 83/85/102
f 52/53/103 51/52/101 83/85/102 84/86/104
f 53/54/105 52/53/103 84/86/104 85/87/106
f 54/55/107 53/54/105 85/87/106 86/88/108
f 55/56/109 54/55/107 86/88/108 87/89/110
f 56/57/111 55/56/109 87/89/110 88/90/112
f 57/58/113 56/57/111 88/90/112 89/91/114
f 58/59/115 57/58/113 89/91/114 90/92/116
f 59/60/117 58/59/115 90/92/116 91/93/118
f 60/61/119 59/60/117 91/93/118 92/94/120
f 61/62/121 60/61/119 92/94/120 93/95/122
f 62/63/123 61/62/121 93/95/122 94/96/124
f 63/64/125 62/63/123 94/96/124 95/97/126
f 64/65/127 63/64/125 95/97/126 96/98/128
f 33/66/66 64/65/127 96/98/128 65/99/67
s 3
f 66/68/129 65/67/130 97/100/131 98/101/132
f 67/69/133 66/68/129 98/101/132 99/102/134
f 68/70/135 67/69/133 99/102/134 100/103/136
f 69/71/137 68/70/135 100/103/136 101/104/138
f 70/72/139 69/71/137 101/104/138 102/105/140
f 71/73/141 70/72/139 102/105/140 103/106/142
f 72/74/143 71/73/141 103/106/142 104/107/144
f 73/75/145 72/74/143 104/107/144 105/108/146
f 74/76/147 73/75/145 105/108/146 106/109/148
f 75/77/149 74/76/147 106/109/148 107/110/150
f 76/78/151 75/77/149 107/110/150 108/111/152
f 77/79/153 76/78/151 108/111/152 109/112/154
f 78/80/155 77/79/153 109/112/154 110/113/156
f 79/81/157 78/80/155 110/113/156 111/114/158
f 80/82/159 79/81/157 111/114/158 112/115/160
f 81/83/161 80/82/159 112/115/160 113/116/162
f 82/84/163 81/83/161 113/116/162 114/117/164
f 83/85/165 82/84/163 114/117/164 115/118/166
f 84/86/167 83/85/165 115/118/166 116/119/168
f 85/87/169 84/86/167 116/119/168 117/120/170
f 86/88/171 85/87/169 117/120/170 118/121/172
f 87/89/173 86/88/171 118/121/172 119/122/174
f 88/90/175 87/89/173 119/122/174 120/123/176
f 89/91/177 88/90/175 120/123/176 121/124/178
f 90/92/179 89/91/177 121/124/178 122/125/180
f 91/93/181 90/92/179 122/125/180 123/126/182
f 92/94/183 91/93/181 123/126/182 124/127/184
f 93/95/185 92/94/183 124/127/184 125/128/186
f 94/96/187 93/95/185 125/128/186 126/129/188
f 95/97/189 94/96/187 126/129/188 127/130/190
f 96/98/191 95/97/189 127/130/190 128/131/192
f 65/99/130 96/98/191 128/131/192 97/132/131
s 4
f 98/101/193 97/100/194 1/133/195 2/134/196
f 99/102/197 98/101/193 2/134/196 3/135/198
f 100/103/199 99/102/197 3/135/198 4/136/200
f 101/104/201 100/103/199 4/136/200 5/137/202
f 102/105/203 101/104/201 5/137/202 6/138/204
f 103/106/205 102/105/203 6/138/204 7/139/206
f 104/107/207 103/106/205 7/139/206 8/140/208
f 105/108/209 104/107/207 8/140/208 9/141/210
f 106/109/211 105/108/209 9/141/210 10/142/212
f 107/110/213 106/109/211 10/142/212 11/143/214
f 108/111/215 107/110/213 11/143/214 12/144/216
f 109/112/217 108/111/215 12/144/216 13/145/218
f 110/113/219 109/112/217 13/145/218 14/146/220
f 111/114/221 110/113/219 14/146/220 15/147/222
f 112/115/223 111/114/221 15/147/222 16/148/224
f 113/116/225 112/115/223 16/148/224 17/149/226
f 114/117/227 113/116/225 17/149/226 18/150/228
f 115/118/229 114/117/227 18/150/228 19/151/230
f 116/119/231 115/118/229 19/151/230 20/152/232
f 117/120/233 116/119/231 20/152/232 21/153/234
f 118/121/235 117/120/233 21/153/234 22/154/236
f 119/122/237 118/121/235 22/154/236 23/155/238
f 120/123/239 119/122/237 23/155/238 24/156/240
f 121/124/241 120/123/239 24/156/240 25/157/242
f 122/125/243 121/124/241 25/157/242 26/158/244
f 123/126/245 122/125/243 26/158/244 27/159/246
f 124/127/247 123/126/245 27/159/246 28/160/248
f 125/128/249 124/127/247 28/160/248 29/161/250
f 126/129/251 125/128/249 29/161/250 30/162/252
f 127/130/253 126/129/251 30/162/252 31/163/254
f 128/131/255 127/130/253 31/163/254 32/164/256
f 97/132/194 128/131/255 32/164/256 1/165/195
